<svg xmlns="http://www.w3.org/2000/svg" id="Calque_2" data-name="Calque 2" viewBox="0 0 208.69 218.06"><defs><style>.cls-3{fill:#5dc1d8}.cls-4{fill:#293d7c}.cls-5{fill:#e26693}.cls-6{fill:#ffaf10}.cls-7{fill:#37c47a}.cls-8{fill:#1a2b63}.cls-10{fill:#db722c}.cls-11{fill:#c3ddf4}</style></defs><g id="copywriting"><circle id="Ellipse_12" cx="104.68" cy="113.32" r="95.75" fill="#e86363" data-name="Ellipse 12"/><path id="Tracé_7" fill="#91e0e8" d="M4.63 139.57a2 2 0 0 0 2 2H35.3v-6a3.52 3.52 0 0 1 3.52-3.57h24.55V59.86a3.06 3.06 0 0 1 3.05-3h92v-6.97H4.63z" data-name="Tracé 7"/><path id="Tracé_8" d="M12.38 139.57V49.89H4.63v89.68a2 2 0 0 0 2 2h7.76a2 2 0 0 1-2.01-2z" class="cls-3" data-name="Tracé 8"/><g id="Groupe_17" data-name="Groupe 17"><path id="Tracé_9" d="M154.66 27.89H8.36a3.73 3.73 0 0 0-3.73 3.73v18.66h153.76V31.62a3.74 3.74 0 0 0-3.73-3.73z" class="cls-4" data-name="Tracé 9"/><path id="Tracé_10" d="M16.11 27.89H8.36a3.73 3.73 0 0 0-3.73 3.73v18.66h7.75V31.62a3.74 3.74 0 0 1 3.73-3.73z" class="cls-4" data-name="Tracé 10"/></g><path id="Tracé_11" d="M19 42.93a3 3 0 1 1 2.16-.93 3.07 3.07 0 0 1-2.16.93z" class="cls-5" data-name="Tracé 11"/><path id="Tracé_12" d="M28.93 42.93a3 3 0 1 1 2.15-.93 3 3 0 0 1-2.15.93z" class="cls-6" data-name="Tracé 12"/><path id="Tracé_13" d="M38.85 42.93a3 3 0 1 1 3-3A3 3 0 0 1 41 42a3 3 0 0 1-2.15.93z" class="cls-7" data-name="Tracé 13"/><g id="Groupe_18" data-name="Groupe 18"><path id="Tracé_14" d="M50.25 80.87h-28.5a2.93 2.93 0 0 1 0-5.86h28.5a2.93 2.93 0 1 1 0 5.86z" class="cls-3" data-name="Tracé 14"/><path id="Tracé_15" d="M63.37 75h-2.14a2.93 2.93 0 1 0 0 5.86h2.14z" class="cls-3" data-name="Tracé 15"/><path id="Tracé_16" d="M63.37 87H21.75a2.93 2.93 0 0 0 0 5.86h41.62z" class="cls-3" data-name="Tracé 16"/><path id="Tracé_17" d="M40.75 104.9h-19a2.93 2.93 0 0 1 0-5.86h19a2.93 2.93 0 0 1 0 5.86z" class="cls-3" data-name="Tracé 17"/><path id="Tracé_18" d="M63.37 99H50.6a2.93 2.93 0 0 0 0 5.86h12.77z" class="cls-3" data-name="Tracé 18"/><path id="Tracé_19" d="M63.37 111.05H21.75a2.93 2.93 0 0 0 0 5.86h41.62v-5.86z" class="cls-3" data-name="Tracé 19"/><path id="Tracé_20" d="M50.25 128.93h-28.5a2.94 2.94 0 0 1 0-5.87h28.5a2.94 2.94 0 0 1 0 5.87z" class="cls-3" data-name="Tracé 20"/><path id="Tracé_21" d="M63.37 123.06h-2.14a2.94 2.94 0 0 0 0 5.87h2.14z" class="cls-3" data-name="Tracé 21"/><path id="Tracé_22" d="M63.37 59.86a2.82 2.82 0 0 1 .13-.86H53.39a2.93 2.93 0 1 0 0 5.86h10z" class="cls-3" data-name="Tracé 22"/></g><path id="Tracé_23" d="M148.26 42.84H137.8a2.93 2.93 0 0 1 0-5.86h10.45a2.93 2.93 0 1 1 0 5.86z" class="cls-8" data-name="Tracé 23"/><path id="Tracé_24" fill="#ffd00d" d="M63 132h107.54a3.52 3.52 0 0 1 3.51 3.52v25.7h28.72a2 2 0 0 0 2-2V76.66H63z" data-name="Tracé 24"/><path id="Rectangle_14" d="M62.98 76.67h7.76v55.29h-7.76z" class="cls-6" data-name="Rectangle 14"/><g id="Groupe_19" data-name="Groupe 19"><path id="Tracé_25" d="M201.28 56.42H66.42A3.44 3.44 0 0 0 63 59.86v17.2h141.73v-17.2a3.45 3.45 0 0 0-3.45-3.44z" class="cls-4" data-name="Tracé 25"/><path id="Tracé_26" d="M74.17 56.42h-7.75A3.44 3.44 0 0 0 63 59.86v17.2h7.75v-17.2a3.45 3.45 0 0 1 3.42-3.44z" class="cls-4" data-name="Tracé 26"/></g><path id="Tracé_27" d="M76.23 70.28a2.77 2.77 0 1 1 2-.81 2.82 2.82 0 0 1-2 .81z" class="cls-5" data-name="Tracé 27"/><path id="Tracé_28" d="M85.37 70.28a2.79 2.79 0 1 1 2.78-2.78 2.78 2.78 0 0 1-2.78 2.78z" class="cls-6" data-name="Tracé 28"/><path id="Tracé_29" d="M94.51 70.28a2.78 2.78 0 1 1 2-.81 2.77 2.77 0 0 1-2 .81z" class="cls-7" data-name="Tracé 29"/><g id="Groupe_20" data-name="Groupe 20"><path id="Tracé_30" d="M105 105.49H78.77a2.93 2.93 0 0 1 0-5.86H105a2.93 2.93 0 0 1 0 5.86z" class="cls-10" data-name="Tracé 30"/><path id="Tracé_31" d="M188.94 105.49h-44.67a2.93 2.93 0 0 1 0-5.86h44.67a2.93 2.93 0 1 1 0 5.86z" class="cls-10" data-name="Tracé 31"/><path id="Tracé_32" d="M134.21 105.49h-19.05a2.93 2.93 0 0 1 0-5.86h19.05a2.93 2.93 0 0 1 0 5.86z" class="cls-10" data-name="Tracé 32"/><path id="Tracé_33" d="M147.51 116.57H78.77a2.94 2.94 0 0 1 0-5.87h68.75a2.94 2.94 0 0 1 0 5.87z" class="cls-10" data-name="Tracé 33"/><path id="Tracé_34" d="M188.94 116.57h-32a2.94 2.94 0 0 1 0-5.87h32a2.94 2.94 0 0 1 0 5.87z" class="cls-10" data-name="Tracé 34"/><path id="Tracé_35" d="M96.28 127.65H78.77a2.94 2.94 0 0 1 0-5.87h17.51a2.94 2.94 0 0 1 0 5.87z" class="cls-10" data-name="Tracé 35"/><path id="Tracé_36" d="M188.94 127.65h-22.62a2.94 2.94 0 0 1 0-5.87h22.62a2.94 2.94 0 0 1 0 5.87z" class="cls-10" data-name="Tracé 36"/><path id="Tracé_37" d="M156.91 127.65h-24a2.94 2.94 0 0 1 0-5.87h24a2.94 2.94 0 0 1 0 5.87z" class="cls-10" data-name="Tracé 37"/><path id="Tracé_38" d="M123.84 127.65h-18.48a2.94 2.94 0 0 1 0-5.87h18.48a2.94 2.94 0 0 1 0 5.87z" class="cls-10" data-name="Tracé 38"/><path id="Tracé_39" d="M188.94 132.85h-16.07a3.52 3.52 0 0 1 1.18 2.63v3.24h14.89a2.93 2.93 0 1 0 0-5.86z" class="cls-10" data-name="Tracé 39"/><path id="Tracé_40" d="M188.94 143.93h-14.89v5.86h14.89a2.93 2.93 0 0 0 0-5.86z" class="cls-10" data-name="Tracé 40"/><path id="Tracé_41" d="M159.78 90.72h-51.85a2.93 2.93 0 0 1 0-5.86h51.85a2.93 2.93 0 1 1 0 5.86z" class="cls-10" data-name="Tracé 41"/></g><path id="Tracé_42" d="M195.39 70.43h-9.64a2.93 2.93 0 0 1 0-5.86h9.64a2.93 2.93 0 0 1 0 5.86z" class="cls-8" data-name="Tracé 42"/><path id="Tracé_43" d="M61.42 198.76h86.52a95.71 95.71 0 0 0 26.5-19.87v-43.41a3.91 3.91 0 0 0-3.9-3.91H38.82a3.92 3.92 0 0 0-3.91 3.91v43.41a95.9 95.9 0 0 0 26.51 19.87z" class="cls-4" data-name="Tracé 43"/><path id="Tracé_44" d="M42.66 135.48a3.93 3.93 0 0 1 3.91-3.91h-7.75a3.92 3.92 0 0 0-3.91 3.91v43.41a93.11 93.11 0 0 0 7.75 7.38z" class="cls-8" data-name="Tracé 44"/><g id="Groupe_21" data-name="Groupe 21"><path id="Tracé_45" d="M50.66 140.3h-8a1.17 1.17 0 0 0-1.17 1.17v8a1.17 1.17 0 0 0 1.17 1.17h8a1.17 1.17 0 0 0 1.17-1.17v-8a1.17 1.17 0 0 0-1.17-1.17z" class="cls-11" data-name="Tracé 45"/><path id="Tracé_46" d="M63.63 140.3h-8a1.17 1.17 0 0 0-1.17 1.17v8a1.17 1.17 0 0 0 1.17 1.17h8a1.18 1.18 0 0 0 1.17-1.17v-8a1.17 1.17 0 0 0-1.17-1.17z" class="cls-11" data-name="Tracé 46"/><path id="Tracé_47" d="M68.59 150.64h8a1.19 1.19 0 0 0 1.18-1.17v-8a1.2 1.2 0 0 0-1.18-1.18h-8a1.19 1.19 0 0 0-1.17 1.18v8a1.18 1.18 0 0 0 1.17 1.17z" class="cls-11" data-name="Tracé 47"/><path id="Tracé_48" d="M81.56 150.64h8a1.18 1.18 0 0 0 1.17-1.17v-8a1.19 1.19 0 0 0-1.17-1.18h-8a1.18 1.18 0 0 0-1.17 1.18v8a1.17 1.17 0 0 0 1.17 1.17z" class="cls-11" data-name="Tracé 48"/><path id="Tracé_49" d="M94.52 150.64h8a1.17 1.17 0 0 0 1.17-1.17v-8a1.18 1.18 0 0 0-1.17-1.18h-8a1.18 1.18 0 0 0-1.17 1.18v8a1.17 1.17 0 0 0 1.17 1.17z" class="cls-11" data-name="Tracé 49"/><path id="Tracé_50" d="M107.48 150.64h8a1.19 1.19 0 0 0 1.18-1.17v-8a1.2 1.2 0 0 0-1.18-1.18h-8a1.19 1.19 0 0 0-1.17 1.18v8a1.18 1.18 0 0 0 1.17 1.17z" class="cls-11" data-name="Tracé 50"/><path id="Tracé_51" d="M120.45 150.64h8a1.18 1.18 0 0 0 1.17-1.17v-8a1.19 1.19 0 0 0-1.17-1.18h-8a1.2 1.2 0 0 0-1.18 1.18v8a1.19 1.19 0 0 0 1.18 1.17z" class="cls-11" data-name="Tracé 51"/><path id="Tracé_52" d="M141.41 140.3h-8a1.17 1.17 0 0 0-1.17 1.17v8a1.17 1.17 0 0 0 1.17 1.17h8a1.17 1.17 0 0 0 1.17-1.17v-8a1.17 1.17 0 0 0-1.17-1.17z" class="cls-11" data-name="Tracé 52"/><path id="Tracé_53" d="M154.37 140.3h-8a1.17 1.17 0 0 0-1.17 1.17v8a1.18 1.18 0 0 0 1.17 1.17h8a1.17 1.17 0 0 0 1.17-1.17v-8a1.17 1.17 0 0 0-1.17-1.17z" class="cls-11" data-name="Tracé 53"/><path id="Tracé_54" d="M167.34 140.3h-8a1.18 1.18 0 0 0-1.18 1.17v8a1.19 1.19 0 0 0 1.18 1.17h8a1.18 1.18 0 0 0 1.17-1.17v-8a1.17 1.17 0 0 0-1.17-1.17z" class="cls-11" data-name="Tracé 54"/><path id="Tracé_55" d="M50.66 153.81h-8a1.17 1.17 0 0 0-1.17 1.19v8a1.17 1.17 0 0 0 1.17 1.17h8a1.17 1.17 0 0 0 1.17-1.17v-8a1.17 1.17 0 0 0-1.17-1.19z" class="cls-11" data-name="Tracé 55"/><path id="Tracé_56" d="M63.63 153.81h-8a1.17 1.17 0 0 0-1.17 1.19v8a1.17 1.17 0 0 0 1.17 1.17h8A1.17 1.17 0 0 0 64.8 163v-8a1.18 1.18 0 0 0-1.17-1.19z" class="cls-11" data-name="Tracé 56"/><path id="Tracé_57" d="M68.59 164.15h8a1.18 1.18 0 0 0 1.18-1.15v-8a1.19 1.19 0 0 0-1.18-1.17h-8a1.18 1.18 0 0 0-1.17 1.17v8a1.17 1.17 0 0 0 1.17 1.15z" class="cls-11" data-name="Tracé 57"/><path id="Tracé_58" d="M81.56 164.15h8a1.17 1.17 0 0 0 1.17-1.15v-8a1.18 1.18 0 0 0-1.17-1.17h-8a1.17 1.17 0 0 0-1.17 1.17v8a1.17 1.17 0 0 0 1.17 1.15z" class="cls-11" data-name="Tracé 58"/><path id="Tracé_59" d="M94.52 164.15h8a1.17 1.17 0 0 0 1.17-1.17v-8a1.17 1.17 0 0 0-1.17-1.17h-8a1.17 1.17 0 0 0-1.17 1.19v8a1.17 1.17 0 0 0 1.17 1.15z" class="cls-11" data-name="Tracé 59"/><path id="Tracé_60" d="M107.48 164.15h8a1.18 1.18 0 0 0 1.18-1.17v-8a1.19 1.19 0 0 0-1.18-1.17h-8a1.18 1.18 0 0 0-1.17 1.17v8a1.17 1.17 0 0 0 1.17 1.17z" class="cls-11" data-name="Tracé 60"/><path id="Tracé_61" d="M120.45 164.15h8a1.17 1.17 0 0 0 1.17-1.17v-8a1.18 1.18 0 0 0-1.17-1.17h-8a1.19 1.19 0 0 0-1.18 1.17v8a1.18 1.18 0 0 0 1.18 1.17z" class="cls-11" data-name="Tracé 61"/><path id="Tracé_62" d="M141.41 153.81h-8a1.17 1.17 0 0 0-1.17 1.17v8a1.17 1.17 0 0 0 1.17 1.17h8a1.17 1.17 0 0 0 1.17-1.17v-8a1.17 1.17 0 0 0-1.17-1.17z" class="cls-11" data-name="Tracé 62"/><path id="Tracé_63" d="M154.37 153.81h-8a1.18 1.18 0 0 0-1.17 1.19v8a1.17 1.17 0 0 0 1.17 1.17h8a1.17 1.17 0 0 0 1.17-1.17v-8a1.17 1.17 0 0 0-1.17-1.19z" class="cls-11" data-name="Tracé 63"/><path id="Tracé_64" d="M167.34 153.81h-8a1.19 1.19 0 0 0-1.18 1.17v8a1.18 1.18 0 0 0 1.18 1.17h8a1.17 1.17 0 0 0 1.17-1.17v-8a1.18 1.18 0 0 0-1.17-1.17z" class="cls-11" data-name="Tracé 64"/><path id="Tracé_65" d="M50.66 167.33h-8a1.17 1.17 0 0 0-1.17 1.17v8a1.17 1.17 0 0 0 1.17 1.17h8a1.17 1.17 0 0 0 1.17-1.17v-8a1.17 1.17 0 0 0-1.17-1.17z" class="cls-11" data-name="Tracé 65"/><path id="Tracé_66" d="M63.63 167.33h-8a1.17 1.17 0 0 0-1.17 1.17v8a1.17 1.17 0 0 0 1.17 1.17h8a1.18 1.18 0 0 0 1.17-1.17v-8a1.17 1.17 0 0 0-1.17-1.17z" class="cls-11" data-name="Tracé 66"/><path id="Tracé_67" d="M68.59 177.67h8a1.19 1.19 0 0 0 1.18-1.17v-8a1.2 1.2 0 0 0-1.18-1.18h-8a1.19 1.19 0 0 0-1.17 1.18v8a1.18 1.18 0 0 0 1.17 1.17z" class="cls-11" data-name="Tracé 67"/><path id="Tracé_68" d="M81.56 177.67h8a1.18 1.18 0 0 0 1.17-1.17v-8a1.19 1.19 0 0 0-1.17-1.18h-8a1.18 1.18 0 0 0-1.17 1.18v8a1.17 1.17 0 0 0 1.17 1.17z" class="cls-11" data-name="Tracé 68"/><path id="Tracé_69" d="M94.52 177.67h8a1.17 1.17 0 0 0 1.17-1.17v-8a1.18 1.18 0 0 0-1.17-1.18h-8a1.18 1.18 0 0 0-1.17 1.18v8a1.17 1.17 0 0 0 1.17 1.17z" class="cls-11" data-name="Tracé 69"/><path id="Tracé_70" d="M107.48 177.67h8a1.19 1.19 0 0 0 1.18-1.17v-8a1.2 1.2 0 0 0-1.18-1.18h-8a1.19 1.19 0 0 0-1.17 1.18v8a1.18 1.18 0 0 0 1.17 1.17z" class="cls-11" data-name="Tracé 70"/><path id="Tracé_71" d="M120.45 177.67h8a1.18 1.18 0 0 0 1.17-1.17v-8a1.19 1.19 0 0 0-1.17-1.18h-8a1.2 1.2 0 0 0-1.18 1.18v8a1.19 1.19 0 0 0 1.18 1.17z" class="cls-11" data-name="Tracé 71"/><path id="Tracé_72" d="M141.41 167.33h-8a1.17 1.17 0 0 0-1.17 1.17v8a1.17 1.17 0 0 0 1.17 1.17h8a1.17 1.17 0 0 0 1.17-1.17v-8a1.17 1.17 0 0 0-1.17-1.17z" class="cls-11" data-name="Tracé 72"/><path id="Tracé_73" d="M154.37 167.33h-8a1.17 1.17 0 0 0-1.17 1.17v8a1.18 1.18 0 0 0 1.17 1.17h8a1.17 1.17 0 0 0 1.17-1.17v-8a1.17 1.17 0 0 0-1.17-1.17z" class="cls-11" data-name="Tracé 73"/><path id="Tracé_74" d="M167.34 167.33h-8a1.18 1.18 0 0 0-1.18 1.17v8a1.19 1.19 0 0 0 1.18 1.17h8a1.18 1.18 0 0 0 1.17-1.17v-8a1.17 1.17 0 0 0-1.17-1.17z" class="cls-11" data-name="Tracé 74"/><path id="Tracé_75" d="M50.66 180.84h-8a1.17 1.17 0 0 0-1.17 1.16v3.25a92.54 92.54 0 0 0 7.45 5.92h1.72a1.17 1.17 0 0 0 1.17-1.17v-8a1.17 1.17 0 0 0-1.17-1.16z" class="cls-11" data-name="Tracé 75"/><path id="Tracé_76" d="M63.63 180.84h-8a1.17 1.17 0 0 0-1.17 1.16v8a1.18 1.18 0 0 0 1.17 1.18h8A1.19 1.19 0 0 0 64.8 190v-8a1.18 1.18 0 0 0-1.17-1.16z" class="cls-11" data-name="Tracé 76"/><path id="Tracé_77" d="M141.41 180.84H68.59a1.18 1.18 0 0 0-1.17 1.16v8a1.19 1.19 0 0 0 1.17 1.18h72.82a1.18 1.18 0 0 0 1.17-1.18v-8a1.17 1.17 0 0 0-1.17-1.16z" class="cls-11" data-name="Tracé 77"/><path id="Tracé_78" d="M154.37 180.84h-8a1.18 1.18 0 0 0-1.17 1.16v8a1.19 1.19 0 0 0 1.17 1.18h8a1.18 1.18 0 0 0 1.17-1.18v-8a1.17 1.17 0 0 0-1.17-1.16z" class="cls-11" data-name="Tracé 78"/><path id="Tracé_79" d="M167.34 180.84h-8a1.19 1.19 0 0 0-1.18 1.17v8a1.2 1.2 0 0 0 1.18 1.18h1.07a95.59 95.59 0 0 0 8.1-6.5V182a1.18 1.18 0 0 0-1.17-1.16z" class="cls-11" data-name="Tracé 79"/></g></g></svg>