<svg xmlns="http://www.w3.org/2000/svg" id="Calque_1" data-name="Calque 1" viewBox="0 0 208.69 218.06"><defs><style>.cls-1{fill:#1a2b63}.cls-2{fill:#d9eafc}.cls-3{fill:#aec1ed}.cls-4{fill:#445ea0}.cls-5{fill:#293d7c}.cls-6{fill:#fe3745}.cls-7{fill:#b7092b}</style></defs><g id="project"><circle id="Ellipse_13" cx="104.34" cy="113.32" r="95.7" class="cls-1" data-name="Ellipse 13"/><path id="Tracé_80" d="M89 157a14.46 14.46 0 0 1 12.18 6.65.36.36 0 0 0 .3.18.39.39 0 0 0 .29-.13 21.13 21.13 0 0 1 21.82-6.3l-7-17.87H92l-7 18.1a14.36 14.36 0 0 1 4-.63z" class="cls-2" data-name="Tracé 80"/><g id="Groupe_22" data-name="Groupe 22"><path id="Tracé_81" d="M95.23 139.57H92l-7 18.06a14.8 14.8 0 0 1 3.44-.56z" class="cls-3" data-name="Tracé 81"/><path id="Tracé_82" d="M81.52 175.51a.39.39 0 0 0 .39.33H82a26.31 26.31 0 0 1 22.1 6.74.4.4 0 0 0 .54 0 26.31 26.31 0 0 1 22.1-6.74h.06a.4.4 0 0 0 .39-.33 32.36 32.36 0 0 1 5.26-13.51 21.55 21.55 0 0 0-30.45 1l-.45.49a14.88 14.88 0 0 0-24.7-.49 32.39 32.39 0 0 1 4.67 12.51z" class="cls-3" data-name="Tracé 82"/></g><path id="Tracé_83" d="M81.91 175.45a32.83 32.83 0 0 0-59.85-13.24A96.09 96.09 0 0 0 59.69 198a26.74 26.74 0 0 1 22.22-22.55z" class="cls-4" data-name="Tracé 83"/><path id="Tracé_84" d="M52.72 151.52a34.55 34.55 0 0 1 22 7.9 32.81 32.81 0 0 0-52.7 2.79q1.17 1.95 2.42 3.84a34.69 34.69 0 0 1 28.28-14.53z" class="cls-5" data-name="Tracé 84"/><path id="Tracé_85" d="M159.24 147.49a32.83 32.83 0 0 0-32.47 28A26.73 26.73 0 0 1 149 198a96.11 96.11 0 0 0 37.64-35.77 32.8 32.8 0 0 0-27.4-14.74z" class="cls-4" data-name="Tracé 85"/><g id="Groupe_23" data-name="Groupe 23"><path id="Tracé_86" d="M161.23 147.55c-.66 0-1.32-.06-2-.06a32.83 32.83 0 0 0-32.47 28 27.48 27.48 0 0 1 3.59.83 37.07 37.07 0 0 1 30.88-28.77z" class="cls-5" data-name="Tracé 86"/><path id="Tracé_87" d="M122.55 175.11a26.64 26.64 0 0 0-18.21 7.17A26.72 26.72 0 0 0 59.69 198a95.81 95.81 0 0 0 89.3 0 26.72 26.72 0 0 0-26.44-22.89z" class="cls-5" data-name="Tracé 87"/></g><path id="Tracé_88" d="M91.72 178.44a27.76 27.76 0 0 1 10.42 2A26.7 26.7 0 0 0 59.69 198q2.36 1.24 4.79 2.36a27.89 27.89 0 0 1 27.24-21.92z" class="cls-1" data-name="Tracé 88"/><g id="Groupe_24" data-name="Groupe 24"><path id="Tracé_89" d="M113.14 139.57h-5.9l.75 6a2.93 2.93 0 0 0 5.83-.65v-.09z" class="cls-3" data-name="Tracé 89"/><path id="Tracé_90" d="M95.54 139.57L94 151.82a2.94 2.94 0 0 0 2.54 3.28h.37a2.92 2.92 0 0 0 2.9-2.56l1.65-13h-5.92z" class="cls-3" data-name="Tracé 90"/></g><path id="Tracé_91" d="M74.31 85.48q0-4.78.34-9.52c-9.4 5.3-15.87 17.09-15.87 30.74A39.25 39.25 0 0 0 64 126.58a1.74 1.74 0 0 0 2.15.73 37.93 37.93 0 0 1 14.15-2.8 127.28 127.28 0 0 1-5.99-39.03z" class="cls-6" data-name="Tracé 91"/><path id="Tracé_92" d="M63.21 106.7c0-11.28 4.42-21.28 11.25-27.4.05-1.12.11-2.23.19-3.34-9.4 5.3-15.87 17.09-15.87 30.74A39.25 39.25 0 0 0 64 126.58a1.74 1.74 0 0 0 2.15.73c.73-.3 1.48-.57 2.23-.82a39.23 39.23 0 0 1-5.17-19.79z" class="cls-7" data-name="Tracé 92"/><g id="Groupe_25" data-name="Groupe 25"><path id="Tracé_93" d="M134 76c.23 3.16.34 6.33.35 9.52a127.59 127.59 0 0 1-6 39 38 38 0 0 1 14.16 2.8 1.71 1.71 0 0 0 2.14-.73 39.36 39.36 0 0 0 5.19-19.88c.07-13.66-6.41-25.45-15.84-30.71z" class="cls-6" data-name="Tracé 93"/><path id="Tracé_94" d="M89.38 129v9a2 2 0 0 0 2 2h26a2 2 0 0 0 2-2v-9z" class="cls-6" data-name="Tracé 94"/></g><path id="Tracé_95" d="M96 138v-9h-6.62v9a2 2 0 0 0 2 2H98a2 2 0 0 1-2-2z" class="cls-7" data-name="Tracé 95"/><path id="Tracé_96" fill="#eef6ff" d="M128.11 44.31H80.57a126.36 126.36 0 0 0-6.65 41.17 126.08 126.08 0 0 0 7.21 42.77 1.74 1.74 0 0 0 1.63 1.14h43.17a1.74 1.74 0 0 0 1.62-1.14 126.09 126.09 0 0 0 7.22-42.77 126.63 126.63 0 0 0-6.66-41.17z" data-name="Tracé 96"/><path id="Tracé_97" d="M86.67 128.25a126.09 126.09 0 0 1-7.22-42.77 126.63 126.63 0 0 1 6.66-41.17h-5.54a126.36 126.36 0 0 0-6.65 41.17 126.08 126.08 0 0 0 7.21 42.77 1.74 1.74 0 0 0 1.63 1.14h5.53a1.74 1.74 0 0 1-1.62-1.14z" class="cls-2" data-name="Tracé 97"/><path id="Tracé_98" fill="#ea2a3d" d="M93.08 44.31v6.48a2 2 0 0 0 2 2h18.61a2 2 0 0 0 2-2v-6.48z" data-name="Tracé 98"/><path id="Tracé_99" d="M97.51 50.79v-6.48h-4.43v6.48a2 2 0 0 0 2 2h4.43a2 2 0 0 1-2-2z" class="cls-7" data-name="Tracé 99"/><path id="Tracé_100" d="M104.34 9a1.74 1.74 0 0 0-1.09.38C94.53 16.48 87.18 27.2 82 40.41q-.82 2.12-1.56 4.29h47.81c-.5-1.45-1-2.88-1.57-4.29-5.17-13.21-12.52-23.93-21.25-31a1.72 1.72 0 0 0-1.09-.41z" class="cls-6" data-name="Tracé 100"/><path id="Tracé_101" d="M107.11 10.84c-.55-.49-1.11-1-1.68-1.43a1.74 1.74 0 0 0-2.18 0c-8.72 7.07-16.07 17.79-21.25 31q-.82 2.12-1.56 4.29H86c.5-1.45 1-2.88 1.57-4.29 4.81-12.36 11.55-22.53 19.54-29.57z" class="cls-7" data-name="Tracé 101"/><circle id="Ellipse_14" cx="104.34" cy="79.7" r="19.93" class="cls-4" data-name="Ellipse 14"/><circle id="Ellipse_15" cx="104.34" cy="79.7" r="12.79" fill="#69cdff" data-name="Ellipse 15"/><path id="Tracé_102" fill="#52bbef" d="M96.24 79.7a12.81 12.81 0 0 0 10.45 12.57 12.78 12.78 0 1 1 0-25.13A12.79 12.79 0 0 0 96.24 79.7z" data-name="Tracé 102"/><path id="Tracé_103" fill="#ffd00d" d="M47.36 78.85a1.11 1.11 0 0 1-1-.69c-2.18-5.26-3.79-6.87-9.05-9a1.11 1.11 0 0 1 0-2c5.26-2.18 6.87-3.79 9.05-9.05a1.11 1.11 0 0 1 2 0c2.18 5.26 3.79 6.87 9 9.05a1.11 1.11 0 0 1 0 2c-5.26 2.18-6.87 3.79-9 9a1.11 1.11 0 0 1-1 .69z" data-name="Tracé 103"/><path id="Tracé_104" fill="#ffaf10" d="M48.56 76c-2.19-5.27-3.79-6.88-9.06-9.06a1.11 1.11 0 0 1-.58-.55c-.5.24-1 .48-1.63.72a1.11 1.11 0 0 0 0 2c5.26 2.18 6.87 3.79 9.05 9a1.11 1.11 0 0 0 2 0c.24-.59.48-1.13.72-1.63a1.11 1.11 0 0 1-.5-.48z" data-name="Tracé 104"/><path id="Tracé_105" fill="#fff" d="M165.07 87.7a1 1 0 0 1-.9-.6c-1.91-4.63-3.33-6-8-8a1 1 0 0 1-.52-1.27 1 1 0 0 1 .52-.53c4.63-1.92 6-3.33 8-8a1 1 0 0 1 1.28-.52 1 1 0 0 1 .52.52c1.92 4.63 3.33 6 8 8a1 1 0 0 1 .53 1.28 1 1 0 0 1-.53.52c-4.63 1.92-6 3.33-8 8a1 1 0 0 1-.9.6z" data-name="Tracé 105"/><path id="Tracé_106" d="M166.12 85.15c-1.92-4.63-3.33-6-8-8a1 1 0 0 1-.51-.48q-.66.32-1.44.63a1 1 0 0 0-.52 1.27 1 1 0 0 0 .52.53c4.63 1.92 6 3.33 8 8a1 1 0 0 0 1.28.53 1 1 0 0 0 .52-.53c.22-.52.43-1 .63-1.44a1 1 0 0 1-.48-.51z" class="cls-2" data-name="Tracé 106"/><path id="Tracé_107" fill="#ff9518" d="M154.92 46.55a1.12 1.12 0 0 1-1-.7c-2.24-5.39-3.88-7-9.27-9.27a1.13 1.13 0 0 1-.65-1.48 1.11 1.11 0 0 1 .62-.62c5.39-2.23 7-3.88 9.27-9.27a1.13 1.13 0 0 1 2.1 0c2.23 5.39 3.88 7 9.27 9.27a1.13 1.13 0 0 1 .62 1.48 1.11 1.11 0 0 1-.62.62c-5.39 2.23-7 3.88-9.27 9.27a1.13 1.13 0 0 1-1.05.7z" data-name="Tracé 107"/><path id="Tracé_108" fill="#ef8318" d="M156.14 43.59c-2.24-5.4-3.88-7-9.28-9.28a1.11 1.11 0 0 1-.59-.56l-1.67.74A1.13 1.13 0 0 0 144 36a1.11 1.11 0 0 0 .62.62c5.39 2.23 7 3.88 9.27 9.27a1.13 1.13 0 0 0 1.48.62 1.17 1.17 0 0 0 .62-.62c.25-.61.49-1.16.74-1.68a1.1 1.1 0 0 1-.59-.62z" data-name="Tracé 108"/></g></svg>