<svg xmlns="http://www.w3.org/2000/svg" data-name="Calque 3" viewBox="0 0 208.69 218.06"><path fill="#5986b8" d="M201 113a96.08 96.08 0 1 1-96-96.08A96.07 96.07 0 0 1 201 113z" data-name="Tracé 834"/><path fill="#38538a" d="M163.06 189.52a96.1 96.1 0 0 1-116.18 0c12-5.88 33.56-9.8 58.09-9.8s46.03 3.92 58.09 9.8z" data-name="Tracé 835"/><path fill="#5ed1c7" d="M175 69C161.11-8.89 48.82-8.89 34.89 69A120.78 120.78 0 0 0 105 200.76 120.79 120.79 0 0 0 175 69z" data-name="Tracé 836"/><path fill="#fcf8f2" d="M161.31 82.07a56.34 56.34 0 1 1-49.89-56 56.34 56.34 0 0 1 49.89 56z" data-name="Tracé 837"/><path fill="#2ba494" d="M111.88 22.06a61.07 61.07 0 0 0-14.3.05c-6.41.79-8.23-8.56-2-10.26a35.49 35.49 0 0 1 9.42-1.27c-31.59 0-63.14 19.48-70.11 58.42A120.8 120.8 0 0 0 105 200.76c-13.3-8.66-24.73-22.39-33.19-39.54C66.16 149.82 76.7 137 89 140.33a60.41 60.41 0 1 0 22.88-118.27zM111 134a52.26 52.26 0 0 1-54.39-32.19A52.28 52.28 0 1 1 111 134z" data-name="Tracé 838"/><path fill="#494966" d="M115.41 79.77c-6.18 4.83-6.29 8.2-6.29 14 0 2.14-1.12 4.61-6.63 4.61-4.6 0-6.18-1.69-6.18-7.53 0-9.66 4.27-14.26 7.53-17.07 3.71-3.15 10-6.63 10-12.7 0-5.17-4.49-7.64-10.11-7.64-11.46 0-9 8.65-15 8.65-3 0-6.74-2-6.74-6.4 0-6.07 7-15.06 22.13-15.06 14.38 0 23.93 8 23.93 18.54s-9.55 18.2-12.59 20.56zm-4.16 35.05a8.56 8.56 0 1 1-8.65-8.65 8.72 8.72 0 0 1 8.65 8.65z" data-name="Tracé 839"/></svg>